<svg width="46" height="45" viewBox="0 0 46 45" fill="none" xmlns="http://www.w3.org/2000/svg">
<path d="M31.0259 31.7706C31.0259 31.7706 30.8662 31.8962 30.7586 31.9608C30.1109 32.3511 29.4253 32.2641 29.2152 31.7439C26.02 23.8629 21.1652 17.1579 14.8296 11.7556C14.4355 11.42 14.5188 10.6791 15.0708 10.1551C15.5948 9.63306 16.3724 9.45903 16.797 9.82076C23.3135 15.3778 28.2684 22.2731 31.5636 30.3436C31.7396 30.7824 31.5027 31.3654 31.0284 31.798L31.0259 31.7706Z" fill="#583F99" stroke="#583F99" stroke-width="0.515907" stroke-miterlimit="10"/>
<path d="M40.1756 21.702C40.1756 21.702 40.0401 21.7691 39.9835 21.7734C39.2668 21.9997 38.5706 21.7722 38.4419 21.2178L34.8868 5.5702C34.7582 5.01518 35.2455 4.38371 35.9622 4.15747C36.6796 3.93124 37.3758 4.15871 37.5045 4.71374L41.0595 20.3613C41.1839 20.8598 40.7755 21.4285 40.1756 21.702Z" fill="#583F99" stroke="#583F99" stroke-width="0.528338" stroke-miterlimit="10"/>
<path d="M20.6939 38.209C20.6939 38.209 20.6461 38.3252 20.5945 38.3861C20.224 39.0648 19.5955 39.3402 19.1498 39.0648L6.76089 30.3852C6.3413 30.0794 6.27914 29.2938 6.62103 28.6169C6.99151 27.9382 7.61997 27.6623 8.06568 27.9376L20.4851 36.644C20.8748 36.9237 20.9569 37.5949 20.6939 38.209Z" fill="#583F99" stroke="#583F99" stroke-width="0.509691" stroke-miterlimit="10"/>
</svg>
